HIERARCHY
ROOT root
{
	OFFSET 0.000000 0.000000 0.000000
	CHANNELS 6 Xposition Yposition Zposition Zrotation Yrotation Xrotation
	JOINT lhip
	{
		OFFSET 0.058581 -0.082280 -0.017664
		CHANNELS 3 Zrotation Yrotation Xrotation
		JOINT lknee
		{
			OFFSET 0.043451 -0.386469 0.008037
			CHANNELS 3 Zrotation Yrotation Xrotation
			JOINT lankle
			{
				OFFSET -0.014790 -0.426874 -0.037428
				CHANNELS 3 Zrotation Yrotation Xrotation
				JOINT ltoe
				{
					OFFSET 0.041054 -0.060286 0.122042
					CHANNELS 3 Zrotation Yrotation Xrotation
					End Site
					{
						OFFSET 0.000000 0.000000 0.000000
					}
				}
			}
		}
	}
	JOINT rhip
	{
		OFFSET -0.060310 -0.090513 -0.013543
		CHANNELS 3 Zrotation Yrotation Xrotation
		JOINT rknee
		{
			OFFSET -0.043257 -0.383688 -0.004843
			CHANNELS 3 Zrotation Yrotation Xrotation
			JOINT rankle
			{
				OFFSET 0.019056 -0.420046 -0.034562
				CHANNELS 3 Zrotation Yrotation Xrotation
				JOINT rtoe
				{
					OFFSET -0.034840 -0.062106 0.130323
					CHANNELS 3 Zrotation Yrotation Xrotation
					End Site
					{
						OFFSET 0.000000 0.000000 0.000000
					}
				}
			}
		}
	}
	JOINT lowerback
	{
		OFFSET 0.004439 0.124404 -0.038385
		CHANNELS 3 Zrotation Yrotation Xrotation
		JOINT upperback
		{
			OFFSET 0.004488 0.137956 0.026820
			CHANNELS 3 Zrotation Yrotation Xrotation
			JOINT chest
			{
				OFFSET -0.002265 0.056032 0.002855
				CHANNELS 3 Zrotation Yrotation Xrotation
				JOINT lowerneck
				{
					OFFSET -0.013390 0.211636 -0.033468
					CHANNELS 3 Zrotation Yrotation Xrotation
					JOINT upperneck
					{
						OFFSET 0.010113 0.088937 0.050410
						CHANNELS 3 Zrotation Yrotation Xrotation
						End Site
						{
							OFFSET 0.000000 0.000000 0.000000
						}
					}
				}
				JOINT lclavicle
				{
					OFFSET 0.071702 0.114000 -0.018898
					CHANNELS 3 Zrotation Yrotation Xrotation
					JOINT lshoulder
					{
						OFFSET 0.122921 0.045205 -0.019046
						CHANNELS 3 Zrotation Yrotation Xrotation
						JOINT lelbow
						{
							OFFSET 0.255332 -0.015649 -0.022946
							CHANNELS 3 Zrotation Yrotation Xrotation
							JOINT lwrist
							{
								OFFSET 0.265709 0.012698 -0.007375
								CHANNELS 3 Zrotation Yrotation Xrotation
								End Site
								{
									OFFSET 0.000000 0.000000 0.000000
								}
							}
						}
					}
				}
				JOINT rclavicle
				{
					OFFSET -0.082954 0.112472 -0.023707
					CHANNELS 3 Zrotation Yrotation Xrotation
					JOINT rshoulder
					{
						OFFSET -0.113228 0.046853 -0.008472
						CHANNELS 3 Zrotation Yrotation Xrotation
						JOINT relbow
						{
							OFFSET -0.260127 -0.014369 -0.031269
							CHANNELS 3 Zrotation Yrotation Xrotation
							JOINT rwrist
							{
								OFFSET -0.269108 0.006794 -0.006027
								CHANNELS 3 Zrotation Yrotation Xrotation
								End Site
								{
									OFFSET 0.000000 0.000000 0.000000
								}
							}
						}
					}
				}
			}
		}
	}
}
MOTION
Frames: 8
Frame Time: 0.033333
0.606457 0.759810 0.936948 -92.761578 1.569753 99.285346 5.219241 -6.157126 -33.609117 -11.873232 -7.261109 41.705949 4.544774 13.717469 -26.396214 0.000000 -0.000000 0.000000 0.669349 4.503378 -35.794169 1.413953 -3.060316 45.674798 5.583483 -16.070828 -25.484184 0.000000 -0.000000 0.000000 -2.067048 -0.707167 26.855267 3.602056 -1.341287 -5.303920 0.046392 -2.214992 9.361835 1.915803 3.986631 9.762583 5.477278 -4.430484 -1.002702 -11.906731 16.907954 6.815780 -32.890697 9.741260 9.425448 -24.352115 -50.962724 31.619683 6.150206 -8.155787 -14.533551 16.090392 -16.283597 -0.287302 46.602078 -15.515477 13.271417 3.606438 53.547607 14.611398 0.127492 5.623433 -10.815706 
0.614365 0.762200 0.903175 -93.431626 1.436207 100.135734 6.599322 -5.078844 -40.820689 -13.539959 -3.167280 51.448934 4.866778 13.131016 -29.568297 0.000000 -0.000000 0.000000 -0.178232 5.538738 -42.506311 0.857143 -4.030421 55.033390 5.337171 -16.332391 -28.022396 0.000000 -0.000000 0.000000 -2.657579 -0.621511 29.453234 4.188986 -0.930100 -5.855462 0.013777 -2.390863 9.285988 1.814487 4.097693 10.389630 5.354719 -4.609866 -1.702241 -11.288869 17.992391 7.936816 -32.708613 11.618781 9.240416 -27.300884 -55.105535 35.481393 6.445154 -8.033243 -16.535000 16.260144 -16.504275 0.035805 47.043837 -15.305249 12.964593 2.615462 56.812531 13.806048 0.207425 5.847507 -12.896480 
0.621110 0.764124 0.865155 -94.065614 1.410062 100.872612 8.037124 -4.066254 -47.778949 -14.479416 0.984408 61.136374 5.344899 13.006476 -33.418061 0.000000 -0.000000 0.000000 -1.256478 6.840517 -49.351475 0.508751 -4.978371 64.581842 5.552841 -16.348730 -30.737327 0.000000 -0.000000 0.000000 -3.223763 -0.882731 32.382906 4.737032 -0.454556 -7.051881 -0.129506 -2.587534 9.358257 2.015139 4.157936 10.349767 4.924951 -4.901889 -1.685903 -11.692383 19.655469 8.480345 -32.846858 12.553864 8.697765 -28.551473 -59.482354 37.337414 8.062188 -7.854506 -18.043585 17.767298 -17.012018 -0.868294 47.130059 -13.898601 12.971035 0.808779 59.021580 12.306392 -0.321182 6.258947 -13.722429 
0.624810 0.764832 0.827000 -95.642487 1.480850 101.250207 9.649045 -2.700887 -53.266401 -14.327404 5.458847 69.893188 5.662212 12.777341 -36.931222 0.000000 -0.000000 0.000000 -2.226169 8.033255 -55.242329 -0.101592 -5.651721 73.161332 5.374068 -15.411969 -33.366523 0.000000 -0.000000 0.000000 -3.943245 -0.891394 35.338283 5.095070 0.047209 -8.282796 -0.366136 -3.017523 8.696765 2.290849 4.154356 10.567384 4.456164 -4.931824 -1.474283 -13.121005 20.857524 8.945623 -33.993609 13.126283 7.585616 -26.542984 -64.388656 36.094816 9.812342 -7.334092 -19.285825 20.141603 -16.232213 -1.628030 47.782102 -10.971268 12.741885 -3.110108 59.369197 8.432957 -1.414766 6.709673 -14.433448 
0.625684 0.764213 0.793619 -98.145376 1.794795 101.354518 11.785591 -1.278577 -56.949728 -12.998109 9.875555 76.946907 5.831649 12.572376 -40.648561 0.000000 -0.000000 0.000000 -3.344445 9.848043 -60.100864 -0.948699 -6.349307 80.472841 5.369537 -14.078978 -34.976234 0.000000 -0.000000 0.000000 -4.915257 -1.124949 37.880173 5.234889 0.562571 -8.865970 -0.621221 -3.489436 8.115521 3.264495 4.208690 9.904434 3.604598 -5.147643 -0.125162 -16.236506 21.642149 8.471705 -36.649627 11.462715 6.161889 -15.824508 -69.110844 26.432420 11.571876 -7.086275 -20.822354 23.910475 -14.066343 -2.409137 48.958048 -5.164413 12.996028 -9.704917 56.747654 1.550552 -3.103949 6.514921 -14.789640 
0.622374 0.762190 0.768528 -102.367548 2.166004 101.141455 13.479368 0.309153 -58.269763 -9.731485 13.388336 82.636681 4.648435 11.169604 -44.407593 0.000000 -0.000000 0.000000 -4.715603 12.809621 -63.442535 -2.082134 -6.857107 85.415522 4.845632 -12.364387 -36.137600 0.000000 -0.000000 0.000000 -5.697511 -1.936855 40.237713 3.989698 0.120373 -9.828745 -0.644392 -3.780260 5.952210 1.784803 2.599622 12.628970 5.159167 -1.899267 -0.308009 -20.799143 18.280262 8.906870 -39.745063 11.128316 0.585470 -2.305009 -72.135395 11.435913 11.424440 -8.405331 -20.087109 26.794492 -8.095509 0.781432 51.157798 1.614597 10.425752 -12.302682 52.162663 -6.850260 -10.971179 7.440242 -12.453474 
0.615643 0.759079 0.755462 -106.464832 1.963977 100.010535 13.253543 0.696855 -57.351906 -6.431458 15.148644 86.598775 3.745718 12.095900 -45.879747 0.000000 -0.000000 0.000000 -4.919717 14.551776 -64.188967 -2.348457 -5.580989 88.525234 4.848695 -10.610252 -36.348827 0.000000 -0.000000 0.000000 -6.115981 -3.387816 42.246534 2.845028 -0.587263 -10.675575 -1.035745 -4.051868 4.686948 0.910549 2.002509 11.925779 5.767525 -0.463847 0.811717 -25.060806 13.018030 8.934771 -40.264427 4.548582 0.259506 14.259186 -71.251467 -7.082057 12.872173 -8.726759 -20.847150 27.709763 -4.185486 1.775527 54.969159 5.156594 11.821991 -15.865371 53.356854 -12.197392 -15.158873 5.546549 -15.889037 
0.606231 0.755755 0.756718 -110.504288 1.321343 98.223437 11.922129 0.415910 -54.019758 -4.036427 15.698951 87.646587 2.720113 12.316749 -45.866119 0.000000 -0.000000 0.000000 -4.279796 16.087516 -61.952683 -2.363572 -3.447218 89.047387 5.002769 -9.135818 -36.043003 0.000000 -0.000000 0.000000 -6.163914 -3.662071 42.699835 2.252813 -2.053046 -9.530440 -1.397876 -5.088987 3.114489 -0.571438 2.546269 12.282113 6.776895 1.058767 1.546266 -27.907602 3.894364 8.971891 -38.079130 -3.813738 0.495463 25.556686 -70.227205 -18.548258 11.031415 -12.289933 -17.128525 26.648965 -1.713249 1.861957 58.009690 2.473905 14.099065 -19.325261 64.149974 -11.884633 -14.127503 5.459733 -20.375782 
